<svg width="436" height="151" viewBox="0 0 436 151" fill="none" xmlns="http://www.w3.org/2000/svg">
<path d="M23.424 130.248C19.392 130.248 16.032 126.888 16.032 122.76C16.032 118.728 19.392 115.368 23.424 115.368C27.552 115.368 30.912 118.728 30.912 122.76C30.912 126.888 27.552 130.248 23.424 130.248ZM23.424 116.232C19.872 116.232 16.896 119.208 16.896 122.76C16.896 126.408 19.872 129.384 23.424 129.384C27.072 129.384 30.048 126.408 30.048 122.76C30.048 119.208 27.072 116.232 23.424 116.232ZM29.664 107.208V107.592H17.376V107.208C17.376 98.856 21.696 94.248 25.536 90.216C28.512 87.048 31.104 84.264 31.104 80.328C31.104 75.432 27.936 72.456 22.656 72.456C16.896 72.456 15.072 76.872 14.496 79.464L14.4 79.944L2.592 76.968L2.688 76.584C4.992 66.6 12.864 60.648 23.52 60.648C34.656 60.648 44.064 68.904 44.064 78.6C44.064 86.472 40.128 90.504 36.384 94.344C32.928 97.896 29.664 101.16 29.664 107.208ZM18.24 106.728H28.896C28.992 100.68 32.256 97.32 35.808 93.768C39.456 90.024 43.296 86.088 43.296 78.6C43.296 69.288 34.272 61.512 23.52 61.512C13.344 61.512 5.952 67.08 3.648 76.392L13.728 78.888C14.88 74.28 18.144 71.592 22.656 71.592C28.416 71.592 31.968 74.952 31.968 80.328C31.968 84.552 29.184 87.624 26.112 90.792C22.464 94.632 18.336 99.048 18.24 106.728Z" fill="#A866FD"/>
<path d="M176.232 93.664C170.856 93.664 166.376 89.184 166.376 83.68C166.376 78.304 170.856 73.824 176.232 73.824C181.736 73.824 186.216 78.304 186.216 83.68C186.216 89.184 181.736 93.664 176.232 93.664ZM176.232 74.976C171.496 74.976 167.528 78.944 167.528 83.68C167.528 88.544 171.496 92.512 176.232 92.512C181.096 92.512 185.064 88.544 185.064 83.68C185.064 78.944 181.096 74.976 176.232 74.976ZM184.552 62.944V63.456H168.168V62.944C168.168 51.808 173.928 45.664 179.048 40.288C183.016 36.064 186.472 32.352 186.472 27.104C186.472 20.576 182.248 16.608 175.208 16.608C167.528 16.608 165.096 22.496 164.328 25.952L164.2 26.592L148.456 22.624L148.584 22.112C151.656 8.8 162.152 0.863998 176.36 0.863998C191.208 0.863998 203.752 11.872 203.752 24.8C203.752 35.296 198.504 40.672 193.512 45.792C188.904 50.528 184.552 54.88 184.552 62.944ZM169.32 62.304H183.528C183.656 54.24 188.008 49.76 192.744 45.024C197.608 40.032 202.728 34.784 202.728 24.8C202.728 12.384 190.696 2.016 176.36 2.016C162.792 2.016 152.936 9.43999 149.864 21.856L163.304 25.184C164.84 19.04 169.192 15.456 175.208 15.456C182.888 15.456 187.624 19.936 187.624 27.104C187.624 32.736 183.912 36.832 179.816 41.056C174.952 46.176 169.448 52.064 169.32 62.304Z" fill="#D434FE"/>
<path d="M345.424 130.248C341.392 130.248 338.032 126.888 338.032 122.76C338.032 118.728 341.392 115.368 345.424 115.368C349.552 115.368 352.912 118.728 352.912 122.76C352.912 126.888 349.552 130.248 345.424 130.248ZM345.424 116.232C341.872 116.232 338.896 119.208 338.896 122.76C338.896 126.408 341.872 129.384 345.424 129.384C349.072 129.384 352.048 126.408 352.048 122.76C352.048 119.208 349.072 116.232 345.424 116.232ZM351.664 107.208V107.592H339.376V107.208C339.376 98.856 343.696 94.248 347.536 90.216C350.512 87.048 353.104 84.264 353.104 80.328C353.104 75.432 349.936 72.456 344.656 72.456C338.896 72.456 337.072 76.872 336.496 79.464L336.4 79.944L324.592 76.968L324.688 76.584C326.992 66.6 334.864 60.648 345.52 60.648C356.656 60.648 366.064 68.904 366.064 78.6C366.064 86.472 362.128 90.504 358.384 94.344C354.928 97.896 351.664 101.16 351.664 107.208ZM340.24 106.728H350.896C350.992 100.68 354.256 97.32 357.808 93.768C361.456 90.024 365.296 86.088 365.296 78.6C365.296 69.288 356.272 61.512 345.52 61.512C335.344 61.512 327.952 67.08 325.648 76.392L335.728 78.888C336.88 74.28 340.144 71.592 344.656 71.592C350.416 71.592 353.968 74.952 353.968 80.328C353.968 84.552 351.184 87.624 348.112 90.792C344.464 94.632 340.336 99.048 340.24 106.728Z" fill="#A866FD"/>
</svg>
